<svg width="151" height="40" viewBox="0 0 151 40" fill="none" xmlns="http://www.w3.org/2000/svg">
<path fill-rule="evenodd" clip-rule="evenodd" d="M34.5104 0H5.84916C4.33102 0 2.87506 0.616989 1.80157 1.71524C0.72808 2.81348 0.125 4.30303 0.125 5.85618L0.125 34.1438C0.125 35.697 0.72808 37.1865 1.80157 38.2848C2.87506 39.383 4.33102 40 5.84916 40H34.5104C36.0286 40 37.4845 39.383 38.558 38.2848C39.6315 37.1865 40.2346 35.697 40.2346 34.1438V5.85618C40.2346 4.30303 39.6315 2.81348 38.558 1.71524C37.4845 0.616989 36.0286 0 34.5104 0ZM4.47374 16.8029L11.8565 9.27056L19.2392 16.8236L11.8565 24.3766L4.47374 16.8029ZM20.1495 32.8194L12.7667 25.2457L20.1697 17.7134L27.5322 25.2664L20.1495 32.8194ZM28.4424 24.3973L21.1203 16.8443L28.4424 9.29126L35.8252 16.8443L28.4424 24.3973Z" fill="#30C4EC"/>
<path d="M59.5744 10.3465C59.5857 11.0095 59.3099 11.6495 58.8076 12.1261C58.5692 12.3598 58.281 12.5461 57.961 12.6735C57.641 12.8008 57.2958 12.8666 56.947 12.8666C56.5981 12.8666 56.253 12.8008 55.9329 12.6735C55.6129 12.5461 55.3247 12.3598 55.0864 12.1261C54.8131 11.8778 54.5981 11.5808 54.4546 11.2534C54.3111 10.926 54.2421 10.5751 54.2519 10.2224C54.2456 9.89709 54.3101 9.57394 54.4418 9.27189C54.5735 8.96983 54.7696 8.69497 55.0187 8.46344C55.2606 8.2305 55.5519 8.04544 55.8746 7.91963C56.1974 7.79382 56.5448 7.72992 56.8955 7.73185C57.2461 7.73379 57.5926 7.80153 57.9137 7.9309C58.2348 8.06027 58.5236 8.24854 58.7625 8.48413C59.0261 8.72932 59.2338 9.02036 59.3732 9.34017C59.5126 9.65999 59.581 10.0021 59.5744 10.3465V10.3465ZM59.0106 29.8188H54.8834V14.1541H59.0106V29.8188Z" fill="#44484D"/>
<path d="M77.8422 29.7571H73.715V28.1017C73.0208 28.7837 72.1738 29.3196 71.2322 29.6723C70.2906 30.0251 69.2768 30.1864 68.2608 30.1451C67.2447 30.1038 66.2505 29.8609 65.3466 29.4331C64.4427 29.0053 63.6506 28.4028 63.0249 27.6671C61.5487 26.0824 60.7475 24.061 60.7696 21.9765C60.7049 19.9111 61.4311 17.8902 62.8219 16.2651C63.455 15.5208 64.2574 14.9119 65.173 14.4811C66.0887 14.0502 67.0957 13.8076 68.124 13.7702C69.1522 13.7327 70.177 13.9014 71.127 14.2644C72.077 14.6274 72.9294 15.1759 73.6248 15.872V8.13269H77.7519L77.8422 29.7571ZM73.918 21.9351C73.9873 20.7257 73.5426 19.5388 72.6775 18.6242C72.2565 18.2204 71.7506 17.8991 71.1905 17.6795C70.6304 17.46 70.0277 17.3468 69.4186 17.3468C68.8096 17.3468 68.2069 17.46 67.6468 17.6795C67.0867 17.8991 66.5808 18.2204 66.1598 18.6242C65.3558 19.5264 64.9387 20.667 64.987 21.8316C64.9395 23.0059 65.365 24.1551 66.1823 25.0597C66.5674 25.5096 67.0613 25.8709 67.625 26.1151C68.1887 26.3594 68.8067 26.4798 69.4299 26.4669C70.056 26.4848 70.6782 26.3711 71.2489 26.1344C71.8196 25.8976 72.3237 25.5442 72.7226 25.1011C73.5104 24.2055 73.9331 23.0859 73.918 21.9351V21.9351Z" fill="#44484D"/>
<path d="M97.8465 21.9765C97.8901 24.0464 97.1308 26.0632 95.704 27.6671C95.0739 28.4037 94.2778 29.0067 93.3701 29.4347C92.4625 29.8628 91.4647 30.1057 90.4452 30.147C89.4256 30.1883 88.4084 30.0269 87.4632 29.6738C86.518 29.3208 85.6671 28.7845 84.9688 28.1017V29.7571H80.8867V8.13269H84.9688V15.872C85.6303 15.2165 86.4329 14.6942 87.3258 14.338C88.2187 13.9818 89.1824 13.7995 90.156 13.8026C91.2461 13.7721 92.3282 13.9839 93.3099 14.4198C94.2916 14.8558 95.1439 15.5031 95.7942 16.3065C97.175 17.9205 97.9007 19.9252 97.8465 21.9765ZM93.7419 21.9765C93.8164 20.7994 93.4058 19.6398 92.5917 18.7276C92.2021 18.292 91.7087 17.9442 91.1496 17.711C90.5905 17.4778 89.9805 17.3655 89.3666 17.3826C88.7405 17.3414 88.1123 17.4318 87.53 17.647C86.9477 17.8621 86.4266 18.1963 86.0062 18.6242C85.1751 19.5228 84.7406 20.6744 84.7884 21.8523C84.7464 23.0384 85.1706 24.1989 85.9837 25.1218C86.386 25.5665 86.894 25.9208 87.4687 26.1575C88.0433 26.3943 88.6694 26.5072 89.299 26.4876C89.9222 26.5169 90.5443 26.4124 91.1159 26.1825C91.6875 25.9526 92.1928 25.6036 92.5917 25.1632C93.3928 24.2526 93.8021 23.104 93.7419 21.9351V21.9765Z" fill="#44484D"/>
<path d="M114.513 29.2184C112.99 29.7867 111.353 30.0546 109.709 30.0048C108.488 30.0741 107.264 29.9012 106.121 29.4978C104.979 29.0943 103.944 28.4698 103.088 27.6668C102.232 26.8638 101.575 25.901 101.161 24.844C100.747 23.787 100.586 22.6605 100.688 21.5413C100.606 20.3703 100.796 19.1967 101.246 18.0983C101.696 16.9999 102.395 16.0018 103.297 15.1701C104.199 14.3385 105.283 13.6923 106.478 13.2745C107.673 12.8567 108.952 12.6767 110.228 12.7466C111.717 12.6896 113.199 12.9517 114.558 13.5123L113.972 15.2712C112.829 14.7521 111.571 14.4829 110.296 14.4849C109.313 14.4341 108.33 14.5806 107.415 14.9143C106.501 15.248 105.676 15.7608 105 16.4169C104.324 17.073 103.811 17.8566 103.499 18.7131C103.187 19.5695 103.082 20.4782 103.192 21.3757C103.088 22.2555 103.195 23.1454 103.505 23.9833C103.815 24.8212 104.32 25.587 104.986 26.2273C105.652 26.8676 106.462 27.367 107.359 27.6906C108.257 28.0142 109.22 28.1543 110.183 28.101C111.506 28.1189 112.819 27.8864 114.04 27.4181L114.513 29.2184Z" fill="#44484D"/>
<path d="M117.4 13.2646C118.888 13.0188 120.398 12.901 121.91 12.9128C123.795 12.7374 125.681 13.2256 127.188 14.2786C127.669 14.6771 128.052 15.1662 128.309 15.7126C128.565 16.259 128.691 16.8498 128.676 17.4447C128.691 18.4036 128.364 19.3407 127.745 20.1137C127.126 20.8868 126.25 21.4536 125.248 21.7282C125.981 22.0216 126.616 22.4886 127.088 23.0813C127.559 23.674 127.851 24.3711 127.932 25.1012C128.241 26.6692 128.709 28.2072 129.33 29.695H126.917C126.377 28.4013 125.969 27.0643 125.699 25.7013C125.158 23.3836 124.188 22.5145 122.046 22.4524H119.791V29.695H117.4V13.2646ZM119.655 20.8797H122.068C124.572 20.8797 126.173 19.6174 126.173 17.693C126.173 15.7685 124.639 14.589 122.159 14.4855C121.4 14.4704 120.643 14.5399 119.903 14.6925L119.655 20.8797Z" fill="#44484D"/>
<path d="M147.396 22.4107C147.261 20.0723 147.103 17.2787 147.125 15.1887C146.494 17.1546 145.75 19.3274 144.87 21.5415L141.532 29.6533H139.75L136.796 21.6864C135.939 19.3274 135.195 17.1753 134.699 15.1887C134.699 17.258 134.518 20.0723 134.36 22.5762L133.864 29.7567H131.609L132.894 13.0366H135.894L139.006 21.1277C139.75 23.197 140.382 25.018 140.833 26.7562C141.284 25.0594 141.938 23.2384 142.75 21.1277L146.02 13.0366H148.975L150.125 29.7567H147.87L147.396 22.4107Z" fill="#44484D"/>
</svg>
